REM MD5 98473f3db191a18eaceafe126d762bad
FILE "International Karate + (Europe).bin" BINARY
  TRACK 01 MODE2/2352
    INDEX 01 00:00:00
  TRACK 02 AUDIO
    INDEX 00 04:50:38
    INDEX 01 04:52:38
  TRACK 03 AUDIO
    INDEX 00 06:55:45
    INDEX 01 06:57:45
  TRACK 04 AUDIO
    INDEX 00 09:00:52
    INDEX 01 09:02:52
  TRACK 05 AUDIO
    INDEX 00 11:05:59
    INDEX 01 11:07:59
REM LEADOUT 15:07:61
